<svg width="32" height="32" viewBox="0 0 32 32" fill="none" xmlns="http://www.w3.org/2000/svg">
<path d="M27 1L27.0809 1.48518C27.3332 2.99894 28.4952 4.19903 30 4.5C28.4952 4.80097 27.3332 6.00106 27.0809 7.51482L27 8L26.9222 7.53601C26.6677 6.0181 25.5071 4.8123 24 4.5C25.5048 4.19903 26.6668 2.99895 26.9191 1.48518L27 1Z" fill="#F7A600"/>
<path d="M29 8L29.0104 8.0797C29.0762 8.58445 29.4918 8.97096 30 9L29.9619 9.00706C29.4626 9.09951 29.0766 9.49799 29 10C28.9505 9.50601 28.5796 9.10467 28.091 9.01643L28 9C28.5235 8.97357 28.948 8.5663 28.996 8.04434L29 8Z" fill="white"/>
<path fill-rule="evenodd" clip-rule="evenodd" d="M10.056 7.08833C10.5066 6.71282 11.1763 6.7737 11.5519 7.22432L15.2317 11.6402L16.7682 10.3598L13.0883 5.94395C12.0057 4.64478 10.0748 4.46925 8.77564 5.55189C7.56844 6.5579 7.41747 8.35701 8.44014 9.55012L10.2407 11.6508L11.7592 10.3492L9.95866 8.24854C9.6619 7.90232 9.7057 7.38026 10.056 7.08833Z" fill="white"/>
<path fill-rule="evenodd" clip-rule="evenodd" d="M21.944 7.08833C21.4934 6.71282 20.8237 6.7737 20.4481 7.22432L16.7683 11.6402L15.2318 10.3598L18.9117 5.94395C19.9943 4.64478 21.9252 4.46925 23.2244 5.55189C24.4316 6.5579 24.5825 8.35701 23.5599 9.55012L21.7593 11.6508L20.2408 10.3492L22.0413 8.24854C22.3381 7.90232 22.2943 7.38026 21.944 7.08833Z" fill="white"/>
<path fill-rule="evenodd" clip-rule="evenodd" d="M4 12C4 10.8954 4.89543 10 6 10H26C27.1046 10 28 10.8954 28 12V15C28 16.1046 27.1046 17 26 17H6C4.89543 17 4 16.1046 4 15V12ZM26 12H6V15H26V12Z" fill="white"/>
<path fill-rule="evenodd" clip-rule="evenodd" d="M7 17C7 15.8954 7.89543 15 9 15H23C24.1046 15 25 15.8954 25 17V27C25 28.1046 24.1046 29 23 29H9C7.89543 29 7 28.1046 7 27V17ZM23 17L9 17V27H23V17Z" fill="white"/>
<rect x="14" y="19" width="4" height="8" fill="#F7A600"/>
</svg>